# xmcd
#
# Track frame offsets:
# 150
# 18975
# 31458
# 58403
# 92455
# 102780
# 129753
# 143328
# 154970
# 166413
# 178607
# 201640
# 228429
# 245691
# 253228
# 265298
# 280649
# 291306
# 302279
# 312892
#
# Disc length: 4400 seconds
#
#
# Revision: 0
# Processed by: cddbd v1.5.2PL0 Copyright (c) Steve Scherf et al.
# Submitted via: FreeRIP 2.951 
#
DISCID=18112e14
DTITLE=Jimi Hendrix - Hendrix
DYEAR=1977
DGENRE=Blues
TTITLE0=Red House
TTITLE1=Miracle Worker
TTITLE2=Blues Blues
TTITLE3=Peoples People
TTITLE4=From this Day on
TTITLE5=Lime Lime
TTITLE6=Whoa Eeh
TTITLE7=Human Heart
TTITLE8=Psycho
TTITLE9=Girl so fine
TTITLE10=Voice in the Wind
TTITLE11=Good Times
TTITLE12=Suspicious
TTITLE13=Under the Table, Pt.2
TTITLE14=Wipe the Sweat
TTITLE15=All I want
TTITLE16=Gonna take a lot
TTITLE17=Sweet Thang
TTITLE18=Goodbye Bessie Mae
TTITLE19=Bring my Baby back
EXTD=
EXTT0=
EXTT1=
EXTT2=
EXTT3=
EXTT4=
EXTT5=
EXTT6=
EXTT7=
EXTT8=
EXTT9=
EXTT10=
EXTT11=
EXTT12=
EXTT13=
EXTT14=
EXTT15=
EXTT16=
EXTT17=
EXTT18=
EXTT19=
PLAYORDER=
